<mxfile host="app.diagrams.net" modified="2024-03-13T07:44:04.037Z" agent="Mozilla/5.0 (Macintosh; Intel Mac OS X 10_15_7) AppleWebKit/537.36 (KHTML, like Gecko) Chrome/122.0.0.0 Safari/537.36" etag="TUfdQwufiJj5moP-sve_" version="24.0.5" type="github">
  <diagram name="Page-1" id="GF0OJ3_MTfcbiwmNIs6B">
    <mxGraphModel dx="1242" dy="700" grid="1" gridSize="10" guides="1" tooltips="1" connect="1" arrows="1" fold="1" page="1" pageScale="1" pageWidth="850" pageHeight="1100" math="0" shadow="0">
      <root>
        <mxCell id="0" />
        <mxCell id="1" parent="0" />
        <mxCell id="rEHcowNwLkk8W2btPBsA-1" value="Client" style="whiteSpace=wrap;html=1;aspect=fixed;" vertex="1" parent="1">
          <mxGeometry x="30" y="260" width="80" height="80" as="geometry" />
        </mxCell>
        <mxCell id="rEHcowNwLkk8W2btPBsA-2" value="URL Shortening Service" style="whiteSpace=wrap;html=1;aspect=fixed;" vertex="1" parent="1">
          <mxGeometry x="350" y="260" width="80" height="80" as="geometry" />
        </mxCell>
        <mxCell id="rEHcowNwLkk8W2btPBsA-3" value="DB" style="strokeWidth=2;html=1;shape=mxgraph.flowchart.database;whiteSpace=wrap;" vertex="1" parent="1">
          <mxGeometry x="680" y="255" width="70" height="90" as="geometry" />
        </mxCell>
        <mxCell id="rEHcowNwLkk8W2btPBsA-4" value="" style="endArrow=classic;html=1;rounded=0;entryX=0;entryY=0.5;entryDx=0;entryDy=0;exitX=1;exitY=0.5;exitDx=0;exitDy=0;" edge="1" parent="1">
          <mxGeometry width="50" height="50" relative="1" as="geometry">
            <mxPoint x="110" y="280" as="sourcePoint" />
            <mxPoint x="350" y="280" as="targetPoint" />
          </mxGeometry>
        </mxCell>
        <mxCell id="rEHcowNwLkk8W2btPBsA-6" value="" style="endArrow=classic;html=1;rounded=0;entryX=0.029;entryY=0.278;entryDx=0;entryDy=0;exitX=1;exitY=0.5;exitDx=0;exitDy=0;entryPerimeter=0;" edge="1" parent="1" target="rEHcowNwLkk8W2btPBsA-3">
          <mxGeometry width="50" height="50" relative="1" as="geometry">
            <mxPoint x="430" y="280" as="sourcePoint" />
            <mxPoint x="670" y="280" as="targetPoint" />
          </mxGeometry>
        </mxCell>
        <mxCell id="rEHcowNwLkk8W2btPBsA-7" value="" style="endArrow=classic;html=1;rounded=0;entryX=0;entryY=0.5;entryDx=0;entryDy=0;exitX=1;exitY=0.5;exitDx=0;exitDy=0;" edge="1" parent="1">
          <mxGeometry width="50" height="50" relative="1" as="geometry">
            <mxPoint x="350" y="310" as="sourcePoint" />
            <mxPoint x="110" y="310" as="targetPoint" />
          </mxGeometry>
        </mxCell>
        <mxCell id="rEHcowNwLkk8W2btPBsA-8" value="" style="endArrow=classic;html=1;rounded=0;entryX=0.029;entryY=0.278;entryDx=0;entryDy=0;exitX=1;exitY=0.5;exitDx=0;exitDy=0;entryPerimeter=0;" edge="1" parent="1">
          <mxGeometry width="50" height="50" relative="1" as="geometry">
            <mxPoint x="680" y="310" as="sourcePoint" />
            <mxPoint x="428" y="310" as="targetPoint" />
          </mxGeometry>
        </mxCell>
      </root>
    </mxGraphModel>
  </diagram>
</mxfile>
